
<?xml version="1.0" encoding="UTF-8"?>
<svg id="OBJECTS" xmlns="http://www.w3.org/2000/svg" xmlns:xlink="http://www.w3.org/1999/xlink" viewBox="0 0 500 500">
  <defs>
    <style>
      .cls-1 {
        fill: url(#linear-gradient-2);
      }

      .cls-2 {
        fill: url(#linear-gradient-6);
      }

      .cls-3 {
        fill: url(#linear-gradient-5);
      }

      .cls-4 {
        fill: url(#linear-gradient-7);
      }

      .cls-5 {
        fill: url(#linear-gradient-3);
      }

      .cls-6 {
        fill: url(#linear-gradient);
      }

      .cls-7 {
        fill: url(#linear-gradient-4);
      }

      .cls-8 {
        fill: #5240ab;
      }

      .cls-9 {
        fill: url(#linear-gradient-8);
      }
    </style>
    <linearGradient id="linear-gradient" x1="159.53" y1="251.55" x2="296.56" y2="114.52" gradientUnits="userSpaceOnUse">
      <stop offset=".1" stop-color="#8155e5"/>
      <stop offset=".2" stop-color="#775fe6"/>
      <stop offset=".39" stop-color="#5e7ceb"/>
      <stop offset=".64" stop-color="#36acf4"/>
      <stop offset=".93" stop-color="#00ebff"/>
    </linearGradient>
    <linearGradient id="linear-gradient-2" x1="236.45" y1="133.78" x2="335.98" y2="233.32" gradientUnits="userSpaceOnUse">
      <stop offset=".15" stop-color="#fd2eb2"/>
      <stop offset=".25" stop-color="#f32ab7"/>
      <stop offset=".4" stop-color="#da21c6"/>
      <stop offset=".59" stop-color="#b112df"/>
      <stop offset=".81" stop-color="#7d00ff"/>
    </linearGradient>
    <linearGradient id="linear-gradient-3" x1="206.39" y1="136.28" x2="321.75" y2="251.65" gradientUnits="userSpaceOnUse">
      <stop offset=".02" stop-color="#fe8fd6" stop-opacity="0"/>
      <stop offset=".06" stop-color="#fd90dc" stop-opacity=".17"/>
      <stop offset=".12" stop-color="#fd91e4" stop-opacity=".39"/>
      <stop offset=".17" stop-color="#fd92eb" stop-opacity=".57"/>
      <stop offset=".23" stop-color="#fd93f1" stop-opacity=".73"/>
      <stop offset=".28" stop-color="#fd94f6" stop-opacity=".85"/>
      <stop offset=".33" stop-color="#fd94f9" stop-opacity=".93"/>
      <stop offset=".38" stop-color="#fd94fb" stop-opacity=".98"/>
      <stop offset=".43" stop-color="#fd95fc"/>
      <stop offset=".52" stop-color="#f38dfc"/>
      <stop offset=".67" stop-color="#da7bfd"/>
      <stop offset=".86" stop-color="#b15cfe"/>
      <stop offset=".9" stop-color="#a956ff"/>
      <stop offset=".94" stop-color="#a146ff" stop-opacity=".49"/>
      <stop offset=".99" stop-color="#9a38ff" stop-opacity="0"/>
    </linearGradient>
    <linearGradient id="linear-gradient-4" x1="193.78" y1="140.73" x2="263.09" y2="210.35" gradientUnits="userSpaceOnUse">
      <stop offset=".03" stop-color="#004ead"/>
      <stop offset=".93" stop-color="#3fafea" stop-opacity="0"/>
    </linearGradient>
    <linearGradient id="linear-gradient-5" x1="213.53" y1="299.96" x2="311.62" y2="201.87" gradientUnits="userSpaceOnUse">
      <stop offset=".11" stop-color="#fd5d85"/>
      <stop offset=".28" stop-color="#fd697d"/>
      <stop offset=".61" stop-color="#fd8a67"/>
      <stop offset="1" stop-color="#ffbb49"/>
    </linearGradient>
    <linearGradient id="linear-gradient-6" x1="266.99" y1="210.58" x2="195.41" y2="282.17" gradientUnits="userSpaceOnUse">
      <stop offset=".28" stop-color="#4637d2"/>
      <stop offset=".34" stop-color="#4738d2" stop-opacity=".97"/>
      <stop offset=".42" stop-color="#4c3ed3" stop-opacity=".9"/>
      <stop offset=".5" stop-color="#5447d5" stop-opacity=".78"/>
      <stop offset=".59" stop-color="#6053d8" stop-opacity=".6"/>
      <stop offset=".69" stop-color="#6e63db" stop-opacity=".38"/>
      <stop offset=".79" stop-color="#8076e0" stop-opacity=".12"/>
      <stop offset=".83" stop-color="#887fe2" stop-opacity="0"/>
    </linearGradient>
    <linearGradient id="linear-gradient-7" x1="263.98" y1="199.01" x2="319.04" y2="254.07" gradientUnits="userSpaceOnUse">
      <stop offset=".04" stop-color="#e14534"/>
      <stop offset=".22" stop-color="#e14634" stop-opacity=".99"/>
      <stop offset=".35" stop-color="#e24b38" stop-opacity=".94"/>
      <stop offset=".47" stop-color="#e4543d" stop-opacity=".87"/>
      <stop offset=".58" stop-color="#e76044" stop-opacity=".77"/>
      <stop offset=".68" stop-color="#eb6f4d" stop-opacity=".64"/>
      <stop offset=".78" stop-color="#f08259" stop-opacity=".48"/>
      <stop offset=".88" stop-color="#f59967" stop-opacity=".29"/>
      <stop offset=".97" stop-color="#fbb376" stop-opacity=".07"/>
      <stop offset="1" stop-color="#febc7c" stop-opacity="0"/>
    </linearGradient>
    <linearGradient id="linear-gradient-8" x1="208.82" y1="272.54" x2="277.61" y2="203.76" gradientUnits="userSpaceOnUse">
      <stop offset=".05" stop-color="#fe85a3" stop-opacity="0"/>
      <stop offset=".05" stop-color="#fe85a3" stop-opacity=".03"/>
      <stop offset=".11" stop-color="#fe85a3" stop-opacity=".32"/>
      <stop offset=".16" stop-color="#fe85a3" stop-opacity=".56"/>
      <stop offset=".2" stop-color="#fe85a3" stop-opacity=".75"/>
      <stop offset=".24" stop-color="#fe85a3" stop-opacity=".89"/>
      <stop offset=".28" stop-color="#fe85a3" stop-opacity=".97"/>
      <stop offset=".3" stop-color="#fe85a3"/>
      <stop offset=".38" stop-color="#fe919f"/>
      <stop offset=".52" stop-color="#feb297"/>
      <stop offset=".65" stop-color="#ffd58f"/>
      <stop offset="1" stop-color="#ffd58f" stop-opacity="0"/>
    </linearGradient>
  </defs>
  <path class="cls-8" d="m313.66,148.2l-45.72-26.4c-11.12-6.4-24.77-6.4-35.89,0l-45.72,26.4c-11.09,6.4-17.92,18.25-17.92,31.06v52.79c0,12.81,6.82,24.66,17.92,31.06l45.72,26.4c11.12,6.4,24.77,6.4,35.89,0l45.72-26.4c.36-.22.73-.45,1.07-.67,10.47-6.51,16.85-18,16.85-30.38v-52.79c0-12.8-6.82-24.66-17.92-31.06Zm-40.32,47.09c5.73,5.73,5.73,15,0,20.72l-12.97,12.97c-5.73,5.73-15,5.73-20.72,0l-12.97-12.97c-5.73-5.73-5.73-15,0-20.72l12.97-12.97c5.73-5.73,15-5.73,20.72,0l12.97,12.97Z"/>
  <path class="cls-6" d="m232.28,154.24l28.08,28.08c-5.73-5.73-15-5.73-20.72,0l-12.97,12.97c-5.73,5.73-5.73,15,0,20.72l12.97,12.97c5.73,5.73,15,5.73,20.72,0l-28.08,28.08c-12.16,12.19-31,14.66-45.94,6.04-11.09-6.4-17.92-18.25-17.92-31.06v-52.79c0-12.8,6.82-24.66,17.92-31.06,14.94-8.62,33.78-6.15,45.94,6.04Z"/>
  <path class="cls-6" d="m232.28,154.24l28.08,28.08c-5.73-5.73-15-5.73-20.72,0l-12.97,12.97c-5.73,5.73-5.73,15,0,20.72l12.97,12.97c5.73,5.73,15,5.73,20.72,0l-28.08,28.08c-12.16,12.19-31,14.66-45.94,6.04-11.09-6.4-17.92-18.25-17.92-31.06v-52.79c0-12.8,6.82-24.66,17.92-31.06,14.94-8.62,33.78-6.15,45.94,6.04Z"/>
  <path class="cls-1" d="m331.58,179.26v52.79c0,12.38-6.37,23.87-16.85,30.38,7.86-5.42,9.04-16.82,2.13-23.7l-56.5-56.42-28.08-28.08c-12.16-12.19-31-14.66-45.94-6.04l45.72-26.4c11.12-6.4,24.77-6.4,35.89,0l45.72,26.4c11.09,6.4,17.92,18.25,17.92,31.06Z"/>
  <path class="cls-5" d="m323.33,251.24c.47-5.18-1.38-10.26-5.06-13.93l-56.5-56.41-28.08-28.08c-7.55-7.57-17.6-11.73-28.31-11.73-.98,0-1.95.04-2.92.11v2.02c.97-.07,1.95-.12,2.92-.12,9.85,0,19.58,3.82,26.89,11.15l28.08,28.08,56.5,56.42c3.62,3.61,5,8.46,4.38,13.04h2.04c.02-.17.04-.35.05-.52Z"/>
  <path class="cls-7" d="m260.36,182.32l-28.08-28.08c-10.59-10.61-26.24-13.85-39.98-8.82-.14.05-.28.11-.41.16h0c-1.89.72-3.74,1.59-5.54,2.62-1.72.99-3.32,2.13-4.83,3.37-.39.32-.78.64-1.15.98,14.59-6.4,31.79-3.34,43.23,8.12l19.24,19.24c5.58-3.14,12.77-2.34,17.53,2.41h0Z"/>
  <path class="cls-3" d="m316.86,238.73c6.91,6.88,5.73,18.28-2.13,23.7-.34.22-.7.45-1.07.67l-45.72,26.4c-11.12,6.4-24.77,6.4-35.89,0l-45.72-26.4c14.94,8.62,33.78,6.15,45.94-6.04l28.08-28.08,12.97-12.97c5.73-5.73,5.73-15,0-20.72l43.53,43.44Z"/>
  <path class="cls-2" d="m260.36,228.99c-4.57,4.57-11.37,5.43-16.85,2.71l-25.37,25.37c-5.56,5.58-12.53,9.09-19.88,10.47,12.13,2.31,24.93-1.37,34.02-10.47l28.08-28.08Z"/>
  <path class="cls-4" d="m273.34,195.29c4.74,4.74,5.5,11.89,2.38,17.46l34.61,34.56c4.23,4.21,5.48,10.07,4.1,15.3.1-.06.2-.12.29-.18,7.86-5.42,9.04-16.82,2.13-23.7l-43.53-43.44Z"/>
  <path class="cls-9" d="m279.57,204.34h-2c.37,4.17-1.03,8.48-4.23,11.68l-12.97,12.97-28.08,28.08c-7.31,7.33-17.05,11.15-26.89,11.15-.97,0-1.95-.05-2.92-.12v2.02c.97.07,1.95.11,2.92.11,10.71,0,20.76-4.17,28.31-11.73l28.08-28.08,12.97-12.97c3.58-3.58,5.19-8.4,4.82-13.09Z"/>
</svg>
